<mxfile host="app.diagrams.net" agent="Mozilla/5.0 (Windows NT 10.0; Win64; x64) AppleWebKit/537.36 (KHTML, like Gecko) Chrome/138.0.0.0 Safari/537.36" version="27.2.0">
  <diagram name="Pagina-1" id="6dlJUnSuyn3KOn1b6KCy">
    <mxGraphModel dx="883" dy="1566" grid="1" gridSize="10" guides="1" tooltips="1" connect="1" arrows="1" fold="1" page="1" pageScale="1" pageWidth="827" pageHeight="1169" math="0" shadow="0">
      <root>
        <mxCell id="0" />
        <mxCell id="1" parent="0" />
        <mxCell id="YtHbf_Gbpa3XFetXYe-O-2" value="DIRIGENTE" style="rounded=0;whiteSpace=wrap;html=1;" vertex="1" parent="1">
          <mxGeometry x="120" y="80" width="120" height="60" as="geometry" />
        </mxCell>
        <mxCell id="YtHbf_Gbpa3XFetXYe-O-3" value="PROGETTO" style="rounded=0;whiteSpace=wrap;html=1;" vertex="1" parent="1">
          <mxGeometry x="1100" y="80" width="120" height="60" as="geometry" />
        </mxCell>
        <mxCell id="YtHbf_Gbpa3XFetXYe-O-4" value="TECNICO" style="rounded=0;whiteSpace=wrap;html=1;" vertex="1" parent="1">
          <mxGeometry x="600" y="80" width="120" height="60" as="geometry" />
        </mxCell>
        <mxCell id="YtHbf_Gbpa3XFetXYe-O-5" value="IMPIEGATO" style="rounded=0;whiteSpace=wrap;html=1;" vertex="1" parent="1">
          <mxGeometry x="354" y="-140" width="120" height="60" as="geometry" />
        </mxCell>
        <mxCell id="YtHbf_Gbpa3XFetXYe-O-6" value="" style="endArrow=none;html=1;rounded=0;exitX=0.5;exitY=0;exitDx=0;exitDy=0;" edge="1" parent="1" source="YtHbf_Gbpa3XFetXYe-O-2">
          <mxGeometry width="50" height="50" relative="1" as="geometry">
            <mxPoint x="490" y="130" as="sourcePoint" />
            <mxPoint x="180" as="targetPoint" />
          </mxGeometry>
        </mxCell>
        <mxCell id="YtHbf_Gbpa3XFetXYe-O-7" value="" style="endArrow=none;html=1;rounded=0;exitX=0.5;exitY=0;exitDx=0;exitDy=0;" edge="1" parent="1">
          <mxGeometry width="50" height="50" relative="1" as="geometry">
            <mxPoint x="659.5799999999999" y="80" as="sourcePoint" />
            <mxPoint x="659.5799999999999" as="targetPoint" />
          </mxGeometry>
        </mxCell>
        <mxCell id="YtHbf_Gbpa3XFetXYe-O-9" value="" style="endArrow=none;html=1;rounded=0;" edge="1" parent="1">
          <mxGeometry width="50" height="50" relative="1" as="geometry">
            <mxPoint x="180" as="sourcePoint" />
            <mxPoint x="660" as="targetPoint" />
          </mxGeometry>
        </mxCell>
        <mxCell id="YtHbf_Gbpa3XFetXYe-O-10" value="" style="shape=flexArrow;endArrow=classic;html=1;rounded=0;entryX=0.5;entryY=1;entryDx=0;entryDy=0;" edge="1" parent="1" target="YtHbf_Gbpa3XFetXYe-O-5">
          <mxGeometry width="50" height="50" relative="1" as="geometry">
            <mxPoint x="414" as="sourcePoint" />
            <mxPoint x="540" y="80" as="targetPoint" />
          </mxGeometry>
        </mxCell>
        <mxCell id="YtHbf_Gbpa3XFetXYe-O-11" value="" style="endArrow=none;html=1;rounded=0;" edge="1" parent="1">
          <mxGeometry width="50" height="50" relative="1" as="geometry">
            <mxPoint x="480" y="-140" as="sourcePoint" />
            <mxPoint x="570" y="-140" as="targetPoint" />
          </mxGeometry>
        </mxCell>
        <mxCell id="YtHbf_Gbpa3XFetXYe-O-12" value="" style="endArrow=none;html=1;rounded=0;" edge="1" parent="1">
          <mxGeometry width="50" height="50" relative="1" as="geometry">
            <mxPoint x="480" y="-110.42" as="sourcePoint" />
            <mxPoint x="570" y="-110.42" as="targetPoint" />
          </mxGeometry>
        </mxCell>
        <mxCell id="YtHbf_Gbpa3XFetXYe-O-13" value="" style="endArrow=none;html=1;rounded=0;" edge="1" parent="1" target="YtHbf_Gbpa3XFetXYe-O-14">
          <mxGeometry width="50" height="50" relative="1" as="geometry">
            <mxPoint x="480" y="-80" as="sourcePoint" />
            <mxPoint x="570" y="-80" as="targetPoint" />
          </mxGeometry>
        </mxCell>
        <mxCell id="YtHbf_Gbpa3XFetXYe-O-14" value="Nome" style="ellipse;whiteSpace=wrap;html=1;" vertex="1" parent="1">
          <mxGeometry x="580" y="-90" width="50" height="20" as="geometry" />
        </mxCell>
        <mxCell id="YtHbf_Gbpa3XFetXYe-O-15" value="Cognome" style="ellipse;whiteSpace=wrap;html=1;" vertex="1" parent="1">
          <mxGeometry x="580" y="-120" width="70" height="20" as="geometry" />
        </mxCell>
        <mxCell id="YtHbf_Gbpa3XFetXYe-O-16" value="Data_nascita" style="ellipse;whiteSpace=wrap;html=1;" vertex="1" parent="1">
          <mxGeometry x="570" y="-160" width="80" height="30" as="geometry" />
        </mxCell>
        <mxCell id="YtHbf_Gbpa3XFetXYe-O-21" value="DIRIGE" style="shape=rhombus;perimeter=rhombusPerimeter;whiteSpace=wrap;html=1;align=center;" vertex="1" parent="1">
          <mxGeometry x="341" y="80" width="146" height="60" as="geometry" />
        </mxCell>
        <mxCell id="YtHbf_Gbpa3XFetXYe-O-22" value="" style="endArrow=none;html=1;rounded=0;exitX=1;exitY=0.5;exitDx=0;exitDy=0;entryX=0;entryY=0.5;entryDx=0;entryDy=0;" edge="1" parent="1" source="YtHbf_Gbpa3XFetXYe-O-2" target="YtHbf_Gbpa3XFetXYe-O-21">
          <mxGeometry relative="1" as="geometry">
            <mxPoint x="310" y="170" as="sourcePoint" />
            <mxPoint x="470" y="170" as="targetPoint" />
          </mxGeometry>
        </mxCell>
        <mxCell id="YtHbf_Gbpa3XFetXYe-O-23" value="" style="endArrow=none;html=1;rounded=0;exitX=0.961;exitY=0.503;exitDx=0;exitDy=0;entryX=0;entryY=0.5;entryDx=0;entryDy=0;exitPerimeter=0;" edge="1" parent="1" source="YtHbf_Gbpa3XFetXYe-O-21" target="YtHbf_Gbpa3XFetXYe-O-4">
          <mxGeometry relative="1" as="geometry">
            <mxPoint x="370" y="130" as="sourcePoint" />
            <mxPoint x="484" y="130" as="targetPoint" />
          </mxGeometry>
        </mxCell>
        <mxCell id="YtHbf_Gbpa3XFetXYe-O-28" value="LAVORA" style="shape=rhombus;perimeter=rhombusPerimeter;whiteSpace=wrap;html=1;align=center;" vertex="1" parent="1">
          <mxGeometry x="840" y="80" width="140" height="60" as="geometry" />
        </mxCell>
        <mxCell id="YtHbf_Gbpa3XFetXYe-O-29" value="" style="endArrow=none;html=1;rounded=0;" edge="1" parent="1">
          <mxGeometry relative="1" as="geometry">
            <mxPoint x="720" y="109.58" as="sourcePoint" />
            <mxPoint x="840" y="110" as="targetPoint" />
          </mxGeometry>
        </mxCell>
        <mxCell id="YtHbf_Gbpa3XFetXYe-O-30" value="" style="endArrow=none;html=1;rounded=0;exitX=1;exitY=0.5;exitDx=0;exitDy=0;entryX=0;entryY=0.5;entryDx=0;entryDy=0;" edge="1" parent="1" source="YtHbf_Gbpa3XFetXYe-O-28" target="YtHbf_Gbpa3XFetXYe-O-3">
          <mxGeometry relative="1" as="geometry">
            <mxPoint x="840" y="160" as="sourcePoint" />
            <mxPoint x="914" y="130" as="targetPoint" />
          </mxGeometry>
        </mxCell>
        <mxCell id="YtHbf_Gbpa3XFetXYe-O-34" value="" style="endArrow=none;html=1;rounded=0;exitX=1;exitY=0.5;exitDx=0;exitDy=0;entryX=0;entryY=0.5;entryDx=0;entryDy=0;" edge="1" parent="1" source="YtHbf_Gbpa3XFetXYe-O-3">
          <mxGeometry relative="1" as="geometry">
            <mxPoint x="1150" y="120" as="sourcePoint" />
            <mxPoint x="1280" y="75" as="targetPoint" />
          </mxGeometry>
        </mxCell>
        <mxCell id="YtHbf_Gbpa3XFetXYe-O-35" value="" style="endArrow=none;html=1;rounded=0;entryX=0.5;entryY=0;entryDx=0;entryDy=0;exitX=0.5;exitY=1;exitDx=0;exitDy=0;" edge="1" parent="1" source="YtHbf_Gbpa3XFetXYe-O-28" target="YtHbf_Gbpa3XFetXYe-O-51">
          <mxGeometry relative="1" as="geometry">
            <mxPoint x="827" y="160" as="sourcePoint" />
            <mxPoint x="887" y="190" as="targetPoint" />
          </mxGeometry>
        </mxCell>
        <mxCell id="YtHbf_Gbpa3XFetXYe-O-37" value="Codice fiscale" style="ellipse;whiteSpace=wrap;html=1;align=center;fontStyle=4;" vertex="1" parent="1">
          <mxGeometry x="560" y="-230" width="90" height="40" as="geometry" />
        </mxCell>
        <mxCell id="YtHbf_Gbpa3XFetXYe-O-38" value="" style="endArrow=none;html=1;rounded=0;exitX=0.5;exitY=0;exitDx=0;exitDy=0;entryX=0;entryY=0.5;entryDx=0;entryDy=0;" edge="1" parent="1" source="YtHbf_Gbpa3XFetXYe-O-5" target="YtHbf_Gbpa3XFetXYe-O-37">
          <mxGeometry relative="1" as="geometry">
            <mxPoint x="480" y="-20" as="sourcePoint" />
            <mxPoint x="640" y="-20" as="targetPoint" />
          </mxGeometry>
        </mxCell>
        <mxCell id="YtHbf_Gbpa3XFetXYe-O-39" value="(1, N)" style="text;strokeColor=none;fillColor=none;spacingLeft=4;spacingRight=4;overflow=hidden;rotatable=0;points=[[0,0.5],[1,0.5]];portConstraint=eastwest;fontSize=12;whiteSpace=wrap;html=1;" vertex="1" parent="1">
          <mxGeometry x="250" y="80" width="40" height="30" as="geometry" />
        </mxCell>
        <mxCell id="YtHbf_Gbpa3XFetXYe-O-40" value="(1, 1)" style="text;strokeColor=none;fillColor=none;spacingLeft=4;spacingRight=4;overflow=hidden;rotatable=0;points=[[0,0.5],[1,0.5]];portConstraint=eastwest;fontSize=12;whiteSpace=wrap;html=1;" vertex="1" parent="1">
          <mxGeometry x="550" y="80" width="40" height="30" as="geometry" />
        </mxCell>
        <mxCell id="YtHbf_Gbpa3XFetXYe-O-41" value="(1, N)" style="text;strokeColor=none;fillColor=none;spacingLeft=4;spacingRight=4;overflow=hidden;rotatable=0;points=[[0,0.5],[1,0.5]];portConstraint=eastwest;fontSize=12;whiteSpace=wrap;html=1;" vertex="1" parent="1">
          <mxGeometry x="730" y="80" width="40" height="30" as="geometry" />
        </mxCell>
        <mxCell id="YtHbf_Gbpa3XFetXYe-O-42" value="(1, N)" style="text;strokeColor=none;fillColor=none;spacingLeft=4;spacingRight=4;overflow=hidden;rotatable=0;points=[[0,0.5],[1,0.5]];portConstraint=eastwest;fontSize=12;whiteSpace=wrap;html=1;" vertex="1" parent="1">
          <mxGeometry x="1050" y="80" width="40" height="30" as="geometry" />
        </mxCell>
        <mxCell id="YtHbf_Gbpa3XFetXYe-O-46" value="{ totale, disgiunto }" style="text;strokeColor=none;fillColor=none;spacingLeft=4;spacingRight=4;overflow=hidden;rotatable=0;points=[[0,0.5],[1,0.5]];portConstraint=eastwest;fontSize=12;whiteSpace=wrap;html=1;" vertex="1" parent="1">
          <mxGeometry x="427" y="-50" width="123" height="30" as="geometry" />
        </mxCell>
        <mxCell id="YtHbf_Gbpa3XFetXYe-O-50" value="Nome" style="ellipse;whiteSpace=wrap;html=1;align=center;" vertex="1" parent="1">
          <mxGeometry x="1270" y="50" width="100" height="40" as="geometry" />
        </mxCell>
        <mxCell id="YtHbf_Gbpa3XFetXYe-O-51" value="Data scadenza" style="ellipse;whiteSpace=wrap;html=1;align=center;" vertex="1" parent="1">
          <mxGeometry x="800" y="180" width="100" height="40" as="geometry" />
        </mxCell>
        <mxCell id="YtHbf_Gbpa3XFetXYe-O-52" value="IDProgetto" style="ellipse;whiteSpace=wrap;html=1;align=center;fontStyle=4;" vertex="1" parent="1">
          <mxGeometry x="1241" y="-30" width="100" height="40" as="geometry" />
        </mxCell>
        <mxCell id="YtHbf_Gbpa3XFetXYe-O-53" value="" style="endArrow=none;html=1;rounded=0;exitX=0.5;exitY=0;exitDx=0;exitDy=0;entryX=0;entryY=0.5;entryDx=0;entryDy=0;" edge="1" parent="1" source="YtHbf_Gbpa3XFetXYe-O-3" target="YtHbf_Gbpa3XFetXYe-O-52">
          <mxGeometry relative="1" as="geometry">
            <mxPoint x="1080" y="60" as="sourcePoint" />
            <mxPoint x="1240" y="60" as="targetPoint" />
          </mxGeometry>
        </mxCell>
        <mxCell id="YtHbf_Gbpa3XFetXYe-O-58" value="Età" style="ellipse;whiteSpace=wrap;html=1;align=center;dashed=1;" vertex="1" parent="1">
          <mxGeometry x="180" y="-135" width="70" height="40" as="geometry" />
        </mxCell>
        <mxCell id="YtHbf_Gbpa3XFetXYe-O-59" value="" style="line;strokeWidth=1;rotatable=0;dashed=0;labelPosition=right;align=left;verticalAlign=middle;spacingTop=0;spacingLeft=6;points=[];portConstraint=eastwest;" vertex="1" parent="1">
          <mxGeometry x="250" y="-120" width="104" height="10" as="geometry" />
        </mxCell>
        <mxCell id="YtHbf_Gbpa3XFetXYe-O-61" value="Specializzazione" style="ellipse;whiteSpace=wrap;html=1;align=center;" vertex="1" parent="1">
          <mxGeometry x="600" y="170" width="120" height="40" as="geometry" />
        </mxCell>
        <mxCell id="YtHbf_Gbpa3XFetXYe-O-63" value="" style="endArrow=none;html=1;rounded=0;exitX=0.5;exitY=0;exitDx=0;exitDy=0;" edge="1" parent="1" source="YtHbf_Gbpa3XFetXYe-O-61">
          <mxGeometry relative="1" as="geometry">
            <mxPoint x="480" y="90" as="sourcePoint" />
            <mxPoint x="660" y="141" as="targetPoint" />
          </mxGeometry>
        </mxCell>
        <mxCell id="YtHbf_Gbpa3XFetXYe-O-65" value="Data Assegnazione" style="ellipse;whiteSpace=wrap;html=1;align=center;" vertex="1" parent="1">
          <mxGeometry x="930" y="180" width="120" height="40" as="geometry" />
        </mxCell>
        <mxCell id="YtHbf_Gbpa3XFetXYe-O-66" value="" style="endArrow=none;html=1;rounded=0;entryX=0.5;entryY=0;entryDx=0;entryDy=0;exitX=0.5;exitY=1;exitDx=0;exitDy=0;" edge="1" parent="1" source="YtHbf_Gbpa3XFetXYe-O-28" target="YtHbf_Gbpa3XFetXYe-O-65">
          <mxGeometry relative="1" as="geometry">
            <mxPoint x="930" y="170" as="sourcePoint" />
            <mxPoint x="870" y="210" as="targetPoint" />
          </mxGeometry>
        </mxCell>
      </root>
    </mxGraphModel>
  </diagram>
</mxfile>
